<svg xmlns="http://www.w3.org/2000/svg" width="512" height="512" viewBox="0 0 512 512"><path d="M301 371.5v75c0 6.88-5.6 12.5-12.5 12.5h-75c-6.9 0-12.5-5.6-12.5-12.5v-75c0-6.88 5.6-12.5 12.5-12.5h75c6.88 0 12.5 5.6 12.5 12.5zM399.74 184c0 59.4-40.3 82.2-70 98.74-18.4 10.64-30 32.2-30 41.26 0 6.88-5.3 15-12.48 15h-75c-6.86 0-11.26-10.6-11.26-17.5v-14.06c0-37.8 37.5-70.32 65-82.8 24.06-10.96 34.06-21.26 34.06-41.26 0-17.52-22.8-33.14-48.12-33.14-14.06 0-26.88 4.36-33.76 9.06-7.52 5.3-15 12.8-33.44 35.92-2.5 3.14-6.26 5-9.7 5-2.8 0-5.3-.92-7.8-2.48L116 158.68c-5.32-4.06-6.56-10.94-3.12-16.56C146.6 86.2 194.12 59 257.88 59c66.88 0 141.88 53.44 141.88 125z" fill="#444"/></svg>